<svg width="30" height="36" viewBox="0 0 30 36" fill="none" xmlns="http://www.w3.org/2000/svg">
<mask id="mask0_6063_262" style="mask-type:luminance" maskUnits="userSpaceOnUse" x="0" y="0" width="30" height="36">
<path d="M29.7048 0.320801H0.40625V35.8977H29.7048V0.320801Z" fill="white"/>
</mask>
<g mask="url(#mask0_6063_262)">
<path d="M20.2816 12.717C20.1396 12.7496 19.99 12.7698 19.8365 12.7757C20.3415 12.4709 20.8739 12.1232 21.4161 11.7299C21.4076 11.7938 21.3935 11.8513 21.3758 11.9025C21.3181 12.0682 21.2039 12.2295 21.0294 12.37C20.8365 12.5249 20.5813 12.6484 20.2816 12.717ZM12.9883 17.8301C12.9263 16.4932 13.0757 15.587 13.3243 14.9471C13.5677 14.3208 13.92 13.9132 14.336 13.5897C14.5909 13.3918 14.839 13.3143 15.056 13.3143C15.2731 13.3143 15.5211 13.3918 15.7762 13.5897C16.1922 13.9132 16.5445 14.3208 16.7879 14.9471C17.0365 15.587 17.1859 16.493 17.1239 17.8299C17.1107 18.1175 17.1869 18.4033 17.3433 18.6461C17.4881 18.871 17.6955 19.0492 17.9407 19.1575L18.3942 19.4247C16.6017 20.8301 15.7218 22.8318 15.0561 24.8306C14.3903 22.8318 13.5104 20.8301 11.718 19.4247L12.1715 19.1575C12.4167 19.0492 12.6241 18.871 12.7689 18.6461C12.9253 18.4033 13.0015 18.1177 12.9883 17.8301ZM22.0486 3.53671C22.3983 3.82647 22.6892 4.10848 23.0232 4.4478L23.2112 4.63883L23.4791 4.64828C23.7466 4.65771 24.019 4.60879 24.2853 4.52157C23.6781 5.34649 22.9349 6.17485 22.1121 6.96463C20.4958 8.51613 18.644 9.8504 17.0927 10.6519C16.4624 10.2543 15.7652 10.0472 15.056 10.0472C14.3469 10.0472 13.6497 10.2543 13.0195 10.6519C11.4681 9.8504 9.6163 8.51614 8.00002 6.96463C7.17726 6.17487 6.4341 5.34652 5.8269 4.52161C6.09318 4.6088 6.36551 4.65771 6.63295 4.64828L6.9007 4.63883L7.08872 4.44797C7.42307 4.10856 7.71384 3.82648 8.06348 3.53671C8.84913 2.88557 9.7145 2.34292 10.6392 1.93299C11.9612 1.34779 13.502 1.03879 15.056 0.994141C16.6102 1.03879 18.151 1.3478 19.4729 1.93299C20.3975 2.34292 21.263 2.88557 22.0486 3.53671ZM12.6743 10.894C12.6742 10.894 12.6744 10.8939 12.6743 10.894L12.6721 10.8957L12.6706 10.8968L12.6743 10.894ZM9.8312 12.7172C9.5317 12.6487 9.27596 12.5251 9.08289 12.3702C8.9084 12.2296 8.79405 12.0683 8.73624 11.9024C8.71862 11.8512 8.70455 11.7938 8.69602 11.7299C9.23825 12.1232 9.7707 12.4709 10.2756 12.7757C10.1222 12.7697 9.9732 12.7498 9.8312 12.7172Z" fill="white"/>
<path d="M12.6743 10.894C12.6742 10.894 12.6744 10.8939 12.6743 10.894ZM12.6743 10.894L12.6721 10.8957L12.6706 10.8968L12.6743 10.894ZM20.2816 12.717C20.1396 12.7496 19.99 12.7698 19.8365 12.7757C20.3415 12.4709 20.8739 12.1232 21.4161 11.7299C21.4076 11.7938 21.3935 11.8513 21.3758 11.9025C21.3181 12.0682 21.2039 12.2295 21.0294 12.37C20.8365 12.5249 20.5813 12.6484 20.2816 12.717ZM12.9883 17.8301C12.9263 16.4932 13.0757 15.587 13.3243 14.9471C13.5677 14.3208 13.92 13.9132 14.336 13.5897C14.5909 13.3918 14.839 13.3143 15.056 13.3143C15.2731 13.3143 15.5211 13.3918 15.7762 13.5897C16.1922 13.9132 16.5445 14.3208 16.7879 14.9471C17.0365 15.587 17.1859 16.493 17.1239 17.8299C17.1107 18.1175 17.1869 18.4033 17.3433 18.6461C17.4881 18.871 17.6955 19.0492 17.9407 19.1575L18.3942 19.4247C16.6017 20.8301 15.7218 22.8318 15.0561 24.8306C14.3903 22.8318 13.5104 20.8301 11.718 19.4247L12.1715 19.1575C12.4167 19.0492 12.6241 18.871 12.7689 18.6461C12.9253 18.4033 13.0015 18.1177 12.9883 17.8301ZM22.0486 3.53671C22.3983 3.82647 22.6892 4.10848 23.0232 4.4478L23.2112 4.63883L23.4791 4.64828C23.7466 4.65771 24.019 4.60879 24.2853 4.52157C23.6781 5.34649 22.9349 6.17485 22.1121 6.96463C20.4958 8.51613 18.644 9.8504 17.0927 10.6519C16.4624 10.2543 15.7652 10.0472 15.056 10.0472C14.3469 10.0472 13.6497 10.2543 13.0195 10.6519C11.4681 9.8504 9.6163 8.51614 8.00002 6.96463C7.17726 6.17487 6.4341 5.34652 5.8269 4.52161C6.09318 4.6088 6.36551 4.65771 6.63295 4.64828L6.9007 4.63883L7.08872 4.44797C7.42307 4.10856 7.71384 3.82648 8.06348 3.53671C8.84913 2.88557 9.7145 2.34292 10.6392 1.93299C11.9612 1.34779 13.502 1.03879 15.056 0.994141C16.6102 1.03879 18.151 1.3478 19.4729 1.93299C20.3975 2.34292 21.263 2.88557 22.0486 3.53671ZM9.8312 12.7172C9.5317 12.6487 9.27596 12.5251 9.08289 12.3702C8.9084 12.2296 8.79405 12.0683 8.73624 11.9024C8.71862 11.8512 8.70455 11.7938 8.69602 11.7299C9.23825 12.1232 9.7707 12.4709 10.2756 12.7757C10.1222 12.7697 9.9732 12.7498 9.8312 12.7172Z" stroke="white" stroke-width="1.34615"/>
<path d="M26.1953 17.652C26.2449 20.8157 26.7753 24.0188 27.9287 27.0725L26.1064 25.5736L25.5052 25.0792L25.1027 25.7454L22.6893 29.74L20.3038 27.4494L19.6967 26.8665L19.2615 27.5868L15.8322 33.2632C15.9862 32.749 16.1465 32.1835 16.3165 31.5835C16.6845 30.2847 17.0984 28.8243 17.5943 27.3723C17.9842 26.2309 18.412 25.1374 18.8841 24.2011C19.356 23.2653 19.8514 22.5289 20.3635 22.0551C20.5398 21.912 20.727 21.7838 20.9233 21.6716L23.8539 19.996L24.8606 19.4204L23.8614 18.8318L20.3879 16.7855C20.3797 16.5366 20.3644 16.2885 20.3408 16.0419C20.5618 16.0184 20.7825 15.9817 21.0015 15.9314C21.736 15.7627 22.4476 15.4394 23.0552 14.9508C23.6826 14.4464 24.1777 13.7788 24.45 12.9916C24.8741 11.7657 24.6824 10.5062 24.1721 9.4248L24.1341 9.34439C24.5011 8.94336 24.8431 8.5296 25.1557 8.12427C25.8344 9.64813 26.1808 11.1699 26.1808 12.8635C26.1808 12.8634 26.1808 12.8636 26.1808 12.8635L26.179 16.0099V16.0171L26.1953 17.6481V17.652ZM13.7949 31.5843C13.9649 32.1844 14.1251 32.7499 14.2792 33.2641L10.8493 27.587L10.4141 26.8666L9.80712 27.4495L7.42163 29.7401L5.00826 25.7455L4.60576 25.0793L4.00461 25.5737L2.18213 27.0727C3.33555 24.019 3.86596 20.8159 3.91566 17.6521L3.91571 17.6483L3.93198 16.0172L3.93202 16.0101L3.93016 12.864C3.93016 11.1702 4.27647 9.64823 4.95524 8.12443C5.26785 8.52974 5.60992 8.94349 5.97688 9.34455L5.93905 9.42471C5.93904 9.42473 5.93906 9.42468 5.93905 9.42471C5.42853 10.5061 5.23699 11.7658 5.66093 12.9915C5.93336 13.7785 6.42826 14.4463 7.05585 14.9508C7.66353 15.4393 8.37497 15.7627 9.10958 15.9314C9.32856 15.9817 9.54922 16.0184 9.77032 16.0419C9.74672 16.2885 9.73132 16.5366 9.72312 16.7855L6.24977 18.8318L5.25061 19.4204L6.25733 19.996L9.18783 21.6716C9.18782 21.6716 9.18785 21.6716 9.18783 21.6716C9.38409 21.7838 9.57142 21.9121 9.74772 22.0551C10.2597 22.5289 10.7551 23.2653 11.227 24.2011C11.6991 25.1374 12.1269 26.2309 12.5168 27.3723C13.0128 28.8245 13.4268 30.2853 13.7949 31.5843Z" fill="white"/>
<path d="M24.45 12.9916C24.1777 13.7788 23.6826 14.4464 23.0552 14.9508C22.4476 15.4394 21.736 15.7627 21.0015 15.9314C20.7825 15.9817 20.5618 16.0184 20.3408 16.0419C20.3644 16.2885 20.3797 16.5366 20.3879 16.7855L23.8614 18.8318L24.8606 19.4204L23.8539 19.996L20.9233 21.6716C20.727 21.7838 20.5398 21.912 20.3635 22.0551C19.8514 22.5289 19.356 23.2653 18.8841 24.2011C18.412 25.1374 17.9842 26.2309 17.5943 27.3723C17.0984 28.8243 16.6845 30.2847 16.3165 31.5835C16.1465 32.1835 15.9862 32.749 15.8322 33.2632L19.2615 27.5868L19.6967 26.8665L20.3038 27.4494L22.6893 29.74L25.1027 25.7454L25.5052 25.0792L26.1064 25.5736L27.9287 27.0725C26.7753 24.0188 26.2449 20.8157 26.1953 17.652V17.6481L26.179 16.0171V16.0099L26.1808 12.8635M24.45 12.9916L23.9023 12.8021M24.45 12.9916C24.8741 11.7657 24.6824 10.5062 24.1721 9.4248L24.1341 9.34439C24.5011 8.94336 24.8431 8.5296 25.1557 8.12427C25.8344 9.64813 26.1808 11.1699 26.1808 12.8635M26.1808 12.8635C26.1808 12.8636 26.1808 12.8634 26.1808 12.8635ZM5.93905 9.42471L5.97688 9.34455C5.60992 8.94349 5.26785 8.52974 4.95524 8.12443C4.27647 9.64823 3.93016 11.1702 3.93016 12.864L3.93202 16.0101L3.93198 16.0172L3.91571 17.6483L3.91566 17.6521C3.86596 20.8159 3.33555 24.019 2.18213 27.0727L4.00461 25.5737L4.60576 25.0793L5.00826 25.7455L7.42163 29.7401L9.80712 27.4495L10.4141 26.8666L10.8493 27.587L14.2792 33.2641C14.1251 32.7499 13.9649 32.1844 13.7949 31.5843C13.4268 30.2853 13.0128 28.8245 12.5168 27.3723C12.1269 26.2309 11.6991 25.1374 11.227 24.2011C10.7551 23.2653 10.2597 22.5289 9.74772 22.0551C9.57142 21.9121 9.38409 21.7838 9.18783 21.6716M5.93905 9.42471C5.93904 9.42473 5.93906 9.42468 5.93905 9.42471ZM5.93905 9.42471C5.42853 10.5061 5.23699 11.7658 5.66093 12.9915C5.93336 13.7785 6.42826 14.4463 7.05585 14.9508C7.66353 15.4393 8.37497 15.7627 9.10958 15.9314C9.32856 15.9817 9.54922 16.0184 9.77032 16.0419C9.74672 16.2885 9.73132 16.5366 9.72312 16.7855L6.24977 18.8318L5.25061 19.4204L6.25733 19.996L9.18783 21.6716M9.18783 21.6716C9.18785 21.6716 9.18782 21.6716 9.18783 21.6716Z" stroke="white" stroke-width="1.34615"/>
</g>
</svg>
