<svg width="30" height="28" viewBox="0 0 30 28" fill="none" xmlns="http://www.w3.org/2000/svg">
<path d="M26.1953 11.652C26.2449 14.8157 26.7753 18.0188 27.9287 21.0725L26.1064 19.5736L25.5052 19.0792L25.1027 19.7454L22.6893 23.74L20.3038 21.4494L19.6967 20.8665L19.2615 21.5868L15.8322 27.2632C15.9862 26.749 16.1465 26.1835 16.3165 25.5835C16.6845 24.2847 17.0984 22.8243 17.5943 21.3723C17.9842 20.2309 18.412 19.1374 18.8841 18.2011C19.356 17.2653 19.8514 16.5289 20.3635 16.0551C20.5398 15.912 20.727 15.7838 20.9233 15.6716L23.8539 13.996L24.8606 13.4204L23.8614 12.8318L20.3879 10.7855C20.3797 10.5366 20.3644 10.2885 20.3408 10.0419C20.5618 10.0184 20.7825 9.98173 21.0015 9.93143C21.736 9.76273 22.4476 9.43943 23.0552 8.95083C23.6826 8.44643 24.1777 7.77883 24.45 6.99163C24.8741 5.76573 24.6824 4.50623 24.1721 3.4248L24.1341 3.34439C24.5011 2.94336 24.8431 2.5296 25.1557 2.12427C25.8344 3.64813 26.1808 5.16993 26.1808 6.86353C26.1808 6.86343 26.1808 6.86363 26.1808 6.86353L26.179 10.0099V10.0171L26.1953 11.6481V11.652ZM13.7949 25.5843C13.9649 26.1844 14.1251 26.7499 14.2792 27.2641L10.8493 21.587L10.4141 20.8666L9.80712 21.4495L7.42163 23.7401L5.00826 19.7455L4.60576 19.0793L4.00461 19.5737L2.18213 21.0727C3.33555 18.019 3.86596 14.8159 3.91566 11.6521L3.91571 11.6483L3.93198 10.0172L3.93202 10.0101L3.93016 6.86403C3.93016 5.17023 4.27647 3.64823 4.95524 2.12443C5.26785 2.52974 5.60992 2.94349 5.97688 3.34455L5.93905 3.42471C5.93904 3.42473 5.93906 3.42468 5.93905 3.42471C5.42853 4.50606 5.23699 5.76583 5.66093 6.99153C5.93336 7.77853 6.42826 8.44633 7.05585 8.95083C7.66353 9.43933 8.37497 9.76273 9.10958 9.93143C9.32856 9.98173 9.54922 10.0184 9.77032 10.0419C9.74672 10.2885 9.73132 10.5366 9.72312 10.7855L6.24977 12.8318L5.25061 13.4204L6.25733 13.996L9.18783 15.6716C9.18782 15.6716 9.18785 15.6716 9.18783 15.6716C9.38409 15.7838 9.57142 15.9121 9.74772 16.0551C10.2597 16.5289 10.7551 17.2653 11.227 18.2011C11.6991 19.1374 12.1269 20.2309 12.5168 21.3723C13.0128 22.8245 13.4268 24.2853 13.7949 25.5843Z" fill="white"/>
<path d="M24.45 6.99163C24.1777 7.77883 23.6826 8.44643 23.0552 8.95083C22.4476 9.43943 21.736 9.76273 21.0015 9.93143C20.7825 9.98173 20.5618 10.0184 20.3408 10.0419C20.3644 10.2885 20.3797 10.5366 20.3879 10.7855L23.8614 12.8318L24.8606 13.4204L23.8539 13.996L20.9233 15.6716C20.727 15.7838 20.5398 15.912 20.3635 16.0551C19.8514 16.5289 19.356 17.2653 18.8841 18.2011C18.412 19.1374 17.9842 20.2309 17.5943 21.3723C17.0984 22.8243 16.6845 24.2847 16.3165 25.5835C16.1465 26.1835 15.9862 26.749 15.8322 27.2632L19.2615 21.5868L19.6967 20.8665L20.3038 21.4494L22.6893 23.74L25.1027 19.7454L25.5052 19.0792L26.1064 19.5736L27.9287 21.0725C26.7753 18.0188 26.2449 14.8157 26.1953 11.652V11.6481L26.179 10.0171V10.0099L26.1808 6.86353M24.45 6.99163L23.9023 6.80213M24.45 6.99163C24.8741 5.76573 24.6824 4.50623 24.1721 3.4248L24.1341 3.34439C24.5011 2.94336 24.8431 2.5296 25.1557 2.12427C25.8344 3.64813 26.1808 5.16993 26.1808 6.86353M26.1808 6.86353C26.1808 6.86363 26.1808 6.86343 26.1808 6.86353ZM5.93905 3.42471L5.97688 3.34455C5.60992 2.94349 5.26785 2.52974 4.95524 2.12443C4.27647 3.64823 3.93016 5.17023 3.93016 6.86403L3.93202 10.0101L3.93198 10.0172L3.91571 11.6483L3.91566 11.6521C3.86596 14.8159 3.33555 18.019 2.18213 21.0727L4.00461 19.5737L4.60576 19.0793L5.00826 19.7455L7.42163 23.7401L9.80712 21.4495L10.4141 20.8666L10.8493 21.587L14.2792 27.2641C14.1251 26.7499 13.9649 26.1844 13.7949 25.5843C13.4268 24.2853 13.0128 22.8245 12.5168 21.3723C12.1269 20.2309 11.6991 19.1374 11.227 18.2011C10.7551 17.2653 10.2597 16.5289 9.74772 16.0551C9.57142 15.9121 9.38409 15.7838 9.18783 15.6716M5.93905 3.42471C5.93904 3.42473 5.93906 3.42468 5.93905 3.42471ZM5.93905 3.42471C5.42853 4.50606 5.23699 5.76583 5.66093 6.99153C5.93336 7.77853 6.42826 8.44633 7.05585 8.95083C7.66353 9.43933 8.37497 9.76273 9.10958 9.93143C9.32856 9.98173 9.54922 10.0184 9.77032 10.0419C9.74672 10.2885 9.73132 10.5366 9.72312 10.7855L6.24977 12.8318L5.25061 13.4204L6.25733 13.996L9.18783 15.6716M9.18783 15.6716C9.18785 15.6716 9.18782 15.6716 9.18783 15.6716Z" stroke="white" stroke-width="1.34615"/>
</svg>
