<svg width="32" height="37" viewBox="0 0 32 37" fill="none" xmlns="http://www.w3.org/2000/svg">
<path d="M11.1641 5.03229C11.229 5.06526 11.2941 5.09832 11.3593 5.13136C12.0008 5.45619 12.6438 5.77578 13.1342 6.01219C13.2358 6.06118 13.3293 6.10586 13.4138 6.14577C13.6049 6.05493 13.8325 5.94247 14.0702 5.82017L15.2436 5.21663L15.9021 4.87793L16.5607 5.21645L17.842 5.87508L18.507 6.21694L19.973 5.55819C20.2928 5.41446 20.583 5.284 20.8461 5.16552C20.3411 4.89829 19.7465 4.58463 19.0519 4.21894C17.7194 3.51743 16.3974 2.81523 15.9319 2.56147C15.7771 2.63974 15.5961 2.73173 15.3928 2.8356C14.6841 3.19766 13.7157 3.69764 12.6595 4.24784L11.1641 5.03229ZM11.1641 5.03229C10.591 4.74097 10.0387 4.45526 9.61851 4.2318C9.61572 4.23031 9.61293 4.22883 9.61014 4.22735C10.2669 3.87591 11.0959 3.43852 11.9941 2.97059M11.1641 5.03229L22.5028 4.41437C21.8405 4.06141 20.9316 3.581 19.7228 2.9446C18.2358 2.16173 16.7926 1.39414 16.5155 1.23882C16.2385 1.0835 15.974 0.958553 15.9278 0.960972C15.8816 0.963391 14.1114 1.86773 11.9941 2.97059M11.1641 5.03229C11.6234 4.7895 12.1291 4.52417 12.6595 4.24784L11.1641 5.03229ZM12.6595 4.24784L11.1641 5.03229L12.6595 4.24784ZM11.9941 2.97059L12.6595 4.24784L11.9941 2.97059ZM11.9941 2.97059L12.6595 4.24784L11.9941 2.97059ZM6.76353 12.3392C7.54876 12.7664 8.33441 13.1928 9.12048 13.6184L6.76353 12.3392ZM6.76353 12.3392L2.70797 7.77927C3.9202 7.15307 5.00445 6.63611 5.11743 6.63033C5.23041 6.62455 7.68017 7.83039 10.5614 9.30994M6.76353 12.3392V11.6394L7.15845 10.9145M6.76353 12.3392L5.32338 16.8214L6.76353 12.3392ZM9.12048 13.6184L10.6254 14.4332L9.12048 13.6184ZM9.12048 13.6184L9.8062 12.352L9.12048 13.6184ZM9.12048 13.6184L9.8062 12.352L9.12048 13.6184ZM10.6254 14.4332L11.2951 14.1304L10.6254 14.4332ZM10.6254 14.4332L10.032 13.121L10.6829 12.8267M10.6254 14.4332L11.0647 13.6218L11.2951 14.1304M11.2951 14.1304C11.7151 13.9402 12.1342 13.7481 12.5525 13.5542L11.2951 14.1304ZM11.2951 14.1304L11.0647 13.6218L11.3111 13.1668L10.7129 12.8429M12.5525 13.5542C12.8494 13.4159 13.5431 13.1031 14.1553 12.8311C14.0742 12.7851 13.9835 12.7344 13.8825 12.6786C13.5394 12.489 13.102 12.2542 12.5589 11.9682M12.5525 13.5542L11.9468 12.2476C11.9464 12.2478 11.946 12.248 11.9456 12.2482M12.5525 13.5542L11.9445 12.2487C11.9449 12.2485 11.9452 12.2484 11.9456 12.2482M12.5589 11.9682C12.92 11.8051 13.3528 11.6113 13.7323 11.4432C13.9026 11.3677 14.0685 11.2925 14.2207 11.2221C13.4057 10.7806 12.2117 10.1574 10.5614 9.30994M12.5589 11.9682C11.8579 11.5989 10.9808 11.1442 9.90346 10.591L10.5614 9.30994M12.5589 11.9682C12.304 12.0834 12.0849 12.1833 11.9456 12.2482L12.5589 11.9682ZM10.5614 9.30994L9.90346 10.591C8.46803 9.85392 7.14283 9.18641 6.1653 8.70525C5.73541 8.49364 5.37771 8.32053 5.10953 8.19418C5.05818 8.21823 5.0032 8.24422 4.94477 8.27208C4.52483 8.47232 3.96472 8.75103 3.36893 9.0588L1.94411 9.79476M1.94411 9.79476L10.7017 12.8182L1.94411 9.79476ZM1.94411 9.79476V13.9141C1.94411 14.9652 1.94836 15.9414 1.95557 16.7443M1.94411 9.79476L10.7116 12.8422L1.94411 9.79476ZM11.9456 12.2482C11.5318 12.44 11.1172 12.63 10.7017 12.8182L11.9456 12.2482ZM10.7017 12.8182L10.7129 12.8429L10.7017 12.8182ZM10.7017 12.8182L10.7129 12.8429L10.7017 12.8182ZM10.7129 12.8429L10.7116 12.8422L10.7129 12.8429ZM10.7116 12.8422L10.7017 12.8182L10.6829 12.8267M10.7116 12.8422L10.6829 12.8267L10.7116 12.8422ZM10.6829 12.8267L9.8062 12.352L10.6829 12.8267ZM9.8062 12.352C8.92292 11.8737 8.04066 11.3947 7.15845 10.9145L9.8062 12.352ZM7.15845 10.9145L6.01238 10.2902L3.88322 9.13017V11.5548V15.8863M7.15845 10.9145L6.76353 11.6394V11.5548H5.32338L4.63438 12.8194L5.32338 13.1948V16.8214M3.88322 15.8863L2.39213 16.5504C2.24333 16.6166 2.09737 16.6815 1.95557 16.7443M3.88322 15.8863L4.73744 15.5058L5.32338 16.8214M3.88322 15.8863V16.8214H5.32338M1.95557 16.7443C1.95775 16.9878 1.96021 17.2154 1.9629 17.4243C1.9675 17.7814 1.97275 18.0799 1.97837 18.3085L0.521973 17.3722C0.585812 17.3447 0.655296 17.3147 0.72999 17.2823C1.06125 17.1387 1.48564 16.9525 1.95557 16.7443ZM28.255 21.5313L28.0901 21.6065L28.0753 23.3006C28.0689 24.0304 28.0523 24.7001 28.0299 25.1932C28.0189 25.4362 28.0058 25.6545 27.9899 25.8213C27.9827 25.8974 27.9713 26.0017 27.9521 26.1031C27.9449 26.1412 27.9229 26.2562 27.8725 26.3879C27.8518 26.442 27.7867 26.6079 27.6469 26.7827C27.5287 26.9303 27.0722 27.4215 26.3101 27.3105L26.3059 27.3099C26.175 27.2904 26.0728 27.2562 26.0465 27.2474L26.0448 27.2468C26.0023 27.2326 25.966 27.2186 25.9418 27.2089C25.8923 27.1892 25.8431 27.1675 25.8015 27.1487C25.7158 27.11 25.6107 27.0598 25.4951 27.0034C25.2613 26.8891 24.9479 26.7311 24.5854 26.5451C23.8584 26.1723 22.912 25.676 21.9643 25.1682L28.255 21.5313ZM28.255 21.5313C28.7818 21.2909 29.5314 20.9526 29.9533 20.7645L28.255 21.5313ZM28.255 21.5313L29.9533 20.7645L28.255 21.5313ZM29.9533 20.7645C29.9622 21.5656 29.9672 22.5126 29.9681 23.4653C29.9693 24.6949 29.9636 25.9266 29.951 26.8583C29.9468 27.1669 29.9418 27.4391 29.9362 27.6655C29.9262 27.6711 29.9161 27.6767 29.9059 27.6824C29.4954 27.9102 28.9334 28.2107 28.3213 28.5273L26.7248 29.3532L22.098 26.9506C21.1124 26.4388 20.1937 25.9556 19.413 25.5396C20.1151 25.2288 20.7751 24.9337 21.1731 24.7522C21.1798 24.7556 21.1867 24.759 21.1937 24.7625C21.3782 24.8553 21.6219 24.9848 21.9643 25.1682L29.9533 20.7645ZM9.40034 4.33984C8.62986 4.75384 8.14487 5.02465 8.14506 5.04474C8.14537 5.07643 8.67723 5.36712 9.40282 5.74572C9.41084 5.73136 9.41886 5.71642 9.42682 5.7009L9.40034 4.33984ZM15.5558 12.0037C15.3975 11.8829 15.0378 11.669 14.4362 11.3395C14.3332 11.5002 14.2574 11.6894 14.2264 11.9025C14.1746 12.2595 14.2701 12.5386 14.3326 12.6794C14.3418 12.7002 14.3514 12.7203 14.3612 12.7397C14.99 12.4599 15.5626 12.1837 15.6455 12.1196C15.6658 12.1038 15.6377 12.0662 15.5558 12.0037ZM6.32375 27.7764C6.47575 27.8585 6.66097 27.9622 6.8542 28.0739C6.76483 28.1145 6.67415 28.1556 6.58237 28.197L4.47956 29.146L3.12472 28.4557L1.94959 27.8569L1.97146 25.809C1.98217 24.8053 1.99397 24.1597 2.01214 23.7418C2.14187 23.682 2.29909 23.6099 2.48862 23.5232C3.2589 23.1712 4.49813 22.6091 6.44627 21.7272C6.60887 21.6536 7.851 21.092 9.37703 20.4022L10.2658 20.0004L17.8475 16.5733C20.1102 15.5505 22.8469 14.3146 23.929 13.8269C24.4788 13.579 24.9838 13.3439 25.3559 13.1636C25.5398 13.0745 25.7027 12.9932 25.8258 12.9279C25.8836 12.8972 25.9547 12.8585 26.0208 12.8178C26.0486 12.8007 26.1127 12.7607 26.1834 12.7054C26.2143 12.6812 26.2921 12.6191 26.3757 12.526C26.4174 12.4795 26.4911 12.3917 26.561 12.2675C26.6231 12.157 26.7464 11.9057 26.7464 11.5597C26.7464 11.2457 26.6442 11.0145 26.5938 10.9137C26.5361 10.7982 26.4747 10.7143 26.4388 10.6684C26.3674 10.577 26.3 10.5136 26.2719 10.4878C26.2088 10.4297 26.151 10.3864 26.1251 10.3673C26.0643 10.3224 25.9986 10.2788 25.945 10.2441C25.831 10.1704 25.6801 10.0779 25.51 9.97628C25.2942 9.8474 25.0303 9.69347 24.7381 9.52633C24.8216 9.48847 24.9062 9.45019 24.9917 9.41157C25.7387 9.07423 26.4261 8.76805 26.9308 8.54689C27.0239 8.50609 27.1102 8.46843 27.1891 8.43419C27.204 8.44146 27.2192 8.44888 27.2346 8.45645C27.6031 8.6369 28.1046 8.88881 28.6486 9.16799C28.6485 9.16797 28.6486 9.16801 28.6486 9.16799L29.8557 9.78759L29.8336 11.8719L29.8119 13.9329L29.2319 14.1987C28.4601 14.5523 26.3211 15.5221 24.4787 16.3537C22.3819 17.3003 20.2853 18.2476 18.1891 19.1953C13.5027 21.3146 11.3214 22.2969 8.47105 23.5712C7.72969 23.9027 7.05107 24.2146 6.55371 24.4509C6.30688 24.5682 6.09505 24.6714 5.93969 24.751C5.86526 24.7892 5.78515 24.8314 5.71545 24.872C5.68542 24.8895 5.62504 24.9252 5.55975 24.972C5.5318 24.992 5.4596 25.0446 5.37993 25.1227C5.34114 25.1608 5.26571 25.2385 5.19007 25.3511C5.13171 25.438 4.96344 25.7033 4.94597 26.0917L4.9459 26.0933C4.9229 26.6178 5.17972 26.972 5.27538 27.0914C5.39723 27.2436 5.52582 27.3454 5.60985 27.4049C5.76109 27.5121 5.92155 27.5904 6.07252 27.6455C6.07932 27.6488 6.08791 27.653 6.09844 27.6582C6.15149 27.6847 6.22764 27.7244 6.32375 27.7764ZM6.05508 27.6372C6.04903 27.6346 6.04806 27.634 6.05329 27.6364C6.05375 27.6366 6.05435 27.6369 6.05508 27.6372ZM8.77879 28.7707C8.77868 28.7708 8.7789 28.7706 8.77879 28.7707V28.7707ZM18.7635 31.6467L19.0858 31.5081L20.9281 32.4399C19.5995 33.0881 17.8401 33.9506 16.9519 34.3891L15.9332 34.892L12.6221 33.2219C12.1136 32.9654 11.6665 32.738 11.2756 32.5368C11.8816 32.261 12.456 32.0011 12.8974 31.8025C13.0558 31.7312 13.1964 31.6682 13.3149 31.6153C13.4751 31.6836 13.7015 31.7891 14.0191 31.9473C14.1126 31.9938 14.2055 32.0406 14.2958 32.0861C14.5061 32.1921 14.7021 32.291 14.8583 32.3623C15.0889 32.4677 15.4211 32.6059 15.8196 32.6349C16.2507 32.6663 16.6026 32.5608 16.8563 32.4655C17.0073 32.4088 17.2006 32.3234 17.3845 32.2422C17.4555 32.2109 17.5251 32.1802 17.5903 32.152C17.9813 31.9833 18.3723 31.8149 18.7635 31.6467ZM5.53275 8.00567C5.5326 8.00572 5.5329 8.00561 5.53275 8.00567V8.00567Z" fill="white"/>
<path d="M11.1641 5.03229C11.229 5.06526 11.2941 5.09832 11.3593 5.13136C12.0008 5.45619 12.6438 5.77578 13.1342 6.01219C13.2358 6.06118 13.3293 6.10586 13.4138 6.14577C13.6049 6.05493 13.8325 5.94247 14.0702 5.82017L15.2436 5.21663L15.9021 4.87793L16.5607 5.21645L17.842 5.87508L18.507 6.21694L19.973 5.55819C20.2928 5.41446 20.583 5.284 20.8461 5.16552C20.3411 4.89829 19.7465 4.58463 19.0519 4.21894C17.7194 3.51743 16.3974 2.81523 15.9319 2.56147C15.7771 2.63974 15.5961 2.73173 15.3928 2.8356C14.6841 3.19766 13.7157 3.69764 12.6595 4.24784M11.1641 5.03229L12.6595 4.24784M11.1641 5.03229C10.591 4.74097 10.0387 4.45526 9.61851 4.2318C9.61572 4.23031 9.61293 4.22883 9.61014 4.22735C10.2669 3.87591 11.0959 3.43852 11.9941 2.97059M11.1641 5.03229L22.5028 4.41437C21.8405 4.06141 20.9316 3.581 19.7228 2.9446C18.2358 2.16173 16.7926 1.39414 16.5155 1.23882C16.2385 1.0835 15.974 0.958553 15.9278 0.960972C15.8816 0.963391 14.1114 1.86773 11.9941 2.97059M11.1641 5.03229C11.6234 4.7895 12.1291 4.52417 12.6595 4.24784M12.6595 4.24784L11.9941 2.97059M6.76353 12.3392C7.54876 12.7664 8.33441 13.1928 9.12048 13.6184M6.76353 12.3392L2.70797 7.77927C3.9202 7.15307 5.00445 6.63611 5.11743 6.63033C5.23041 6.62455 7.68017 7.83039 10.5614 9.30994M6.76353 12.3392V11.6394M6.76353 12.3392L5.32338 16.8214M9.12048 13.6184L10.6254 14.4332M9.12048 13.6184L9.8062 12.352M10.5614 9.30994C12.2117 10.1574 13.4057 10.7806 14.2207 11.2221C14.0685 11.2925 13.9026 11.3677 13.7323 11.4432C13.3528 11.6113 12.92 11.8051 12.5589 11.9682M10.5614 9.30994L9.90346 10.591M6.76353 11.6394L7.15845 10.9145M6.76353 11.6394V11.5548H5.32338L4.63438 12.8194L5.32338 13.1948V16.8214M7.15845 10.9145C8.04066 11.3947 8.92292 11.8737 9.8062 12.352M7.15845 10.9145L6.01238 10.2902L3.88322 9.13017V11.5548V15.8863M5.32338 16.8214L4.73744 15.5058L3.88322 15.8863M5.32338 16.8214H3.88322V15.8863M10.6254 14.4332L11.2951 14.1304M10.6254 14.4332L10.032 13.121L10.6829 12.8267M10.6254 14.4332L11.0647 13.6218M9.8062 12.352L10.6829 12.8267M11.2951 14.1304L11.0647 13.6218M11.2951 14.1304C11.7151 13.9402 12.1342 13.7481 12.5525 13.5542M10.6829 12.8267L10.7017 12.8182M10.6829 12.8267L10.7116 12.8422M11.0647 13.6218L11.3111 13.1668L10.7129 12.8429M12.5525 13.5542C12.8494 13.4159 13.5431 13.1031 14.1553 12.8311C14.0742 12.7851 13.9835 12.7344 13.8825 12.6786C13.5394 12.489 13.102 12.2542 12.5589 11.9682M12.5525 13.5542L11.9468 12.2476C11.9464 12.2478 11.946 12.248 11.9456 12.2482M12.5525 13.5542L11.9445 12.2487C11.9449 12.2485 11.9452 12.2484 11.9456 12.2482M10.7129 12.8429L10.7017 12.8182M10.7129 12.8429L10.7116 12.8422M12.5589 11.9682C11.8579 11.5989 10.9808 11.1442 9.90346 10.591M12.5589 11.9682C12.304 12.0834 12.0849 12.1833 11.9456 12.2482M11.9456 12.2482C11.5318 12.44 11.1172 12.63 10.7017 12.8182M9.90346 10.591C8.46803 9.85392 7.14283 9.18641 6.1653 8.70525C5.73541 8.49364 5.37771 8.32053 5.10953 8.19418C5.05818 8.21823 5.0032 8.24422 4.94477 8.27208C4.52483 8.47232 3.96472 8.75103 3.36893 9.0588L1.94411 9.79476M1.94411 9.79476L10.7017 12.8182M1.94411 9.79476V13.9141C1.94411 14.9652 1.94836 15.9414 1.95557 16.7443M1.94411 9.79476L10.7116 12.8422M10.7017 12.8182L10.7116 12.8422M1.95557 16.7443C2.09737 16.6815 2.24333 16.6166 2.39213 16.5504L3.88322 15.8863M1.95557 16.7443C1.95775 16.9878 1.96021 17.2154 1.9629 17.4243C1.9675 17.7814 1.97275 18.0799 1.97837 18.3085L0.521973 17.3722C0.585812 17.3447 0.655296 17.3147 0.72999 17.2823C1.06125 17.1387 1.48564 16.9525 1.95557 16.7443ZM28.255 21.5313L28.0901 21.6065L28.0753 23.3006C28.0689 24.0304 28.0523 24.7001 28.0299 25.1932C28.0189 25.4362 28.0058 25.6545 27.9899 25.8213C27.9827 25.8974 27.9713 26.0017 27.9521 26.1031C27.9449 26.1412 27.9229 26.2562 27.8725 26.3879C27.8518 26.442 27.7867 26.6079 27.6469 26.7827C27.5287 26.9303 27.0722 27.4215 26.3101 27.3105L26.3059 27.3099C26.175 27.2904 26.0728 27.2562 26.0465 27.2474L26.0448 27.2468C26.0023 27.2326 25.966 27.2186 25.9418 27.2089C25.8923 27.1892 25.8431 27.1675 25.8015 27.1487C25.7158 27.11 25.6107 27.0598 25.4951 27.0034C25.2613 26.8891 24.9479 26.7311 24.5854 26.5451C23.8584 26.1723 22.912 25.676 21.9643 25.1682M28.255 21.5313L21.9643 25.1682M28.255 21.5313C28.7818 21.2909 29.5314 20.9526 29.9533 20.7645M28.255 21.5313L29.9533 20.7645M21.9643 25.1682C21.6219 24.9848 21.3782 24.8553 21.1937 24.7625C21.1867 24.759 21.1798 24.7556 21.1731 24.7522C20.7751 24.9337 20.1151 25.2288 19.413 25.5396C20.1937 25.9556 21.1124 26.4388 22.098 26.9506M21.9643 25.1682L29.9533 20.7645M29.9533 20.7645C29.9622 21.5656 29.9672 22.5126 29.9681 23.4653C29.9693 24.6949 29.9636 25.9266 29.951 26.8583C29.9468 27.1669 29.9418 27.4391 29.9362 27.6655C29.9262 27.6711 29.9161 27.6767 29.9059 27.6824C29.4954 27.9102 28.9334 28.2107 28.3213 28.5273M28.3213 28.5273L28.9638 29.7693M28.3213 28.5273L26.7248 29.3532L22.098 26.9506M22.098 26.9506L21.5084 28.0859M28.6486 9.16799C28.1046 8.88881 27.6031 8.6369 27.2346 8.45645C27.2192 8.44888 27.204 8.44146 27.1891 8.43419C27.1102 8.46843 27.0239 8.50609 26.9308 8.54689C26.4261 8.76805 25.7387 9.07423 24.9917 9.41157C24.9062 9.45019 24.8216 9.48847 24.7381 9.52633C25.0303 9.69347 25.2942 9.8474 25.51 9.97628C25.6801 10.0779 25.831 10.1704 25.945 10.2441C25.9986 10.2788 26.0643 10.3224 26.1251 10.3673C26.151 10.3864 26.2088 10.4297 26.2719 10.4878C26.3 10.5136 26.3674 10.577 26.4388 10.6684C26.4747 10.7143 26.5361 10.7982 26.5938 10.9137C26.6442 11.0145 26.7464 11.2457 26.7464 11.5597C26.7464 11.9057 26.6231 12.157 26.561 12.2675C26.4911 12.3917 26.4174 12.4795 26.3757 12.526C26.2921 12.6191 26.2143 12.6812 26.1834 12.7054C26.1127 12.7607 26.0486 12.8007 26.0208 12.8178C25.9547 12.8585 25.8836 12.8972 25.8258 12.9279C25.7027 12.9932 25.5398 13.0745 25.3559 13.1636C24.9838 13.3439 24.4788 13.579 23.929 13.8269C22.8469 14.3146 20.1102 15.5505 17.8475 16.5733L10.2658 20.0004L9.37703 20.4022C7.851 21.092 6.60887 21.6536 6.44627 21.7272C4.49813 22.6091 3.2589 23.1712 2.48862 23.5232C2.29909 23.6099 2.14187 23.682 2.01214 23.7418C1.99397 24.1597 1.98217 24.8053 1.97146 25.809L1.94959 27.8569L3.12472 28.4557L4.47956 29.146L6.58237 28.197C6.67415 28.1556 6.76483 28.1145 6.8542 28.0739C6.66097 27.9622 6.47575 27.8585 6.32375 27.7764C6.22764 27.7244 6.15149 27.6847 6.09844 27.6582C6.08791 27.653 6.07932 27.6488 6.07252 27.6455C5.92155 27.5904 5.76109 27.5121 5.60985 27.4049C5.52582 27.3454 5.39723 27.2436 5.27538 27.0914C5.17972 26.972 4.9229 26.6178 4.9459 26.0933L4.94597 26.0917C4.96344 25.7033 5.13171 25.438 5.19007 25.3511C5.26571 25.2385 5.34114 25.1608 5.37993 25.1227C5.4596 25.0446 5.5318 24.992 5.55975 24.972C5.62504 24.9252 5.68542 24.8895 5.71545 24.872C5.78515 24.8314 5.86526 24.7892 5.93969 24.751C6.09505 24.6714 6.30688 24.5682 6.55371 24.4509C7.05107 24.2146 7.72969 23.9027 8.47105 23.5712C11.3214 22.2969 13.5027 21.3146 18.1891 19.1953C20.2853 18.2476 22.3819 17.3003 24.4787 16.3537C26.3211 15.5221 28.4601 14.5523 29.2319 14.1987L29.8119 13.9329L29.8336 11.8719L29.8557 9.78759L28.6486 9.16799ZM28.6486 9.16799C28.6486 9.16801 28.6485 9.16797 28.6486 9.16799ZM8.77879 28.7707C8.7789 28.7706 8.77868 28.7708 8.77879 28.7707ZM8.77879 28.7707L9.07963 28.1973L9.29056 27.795M21.5355 24.5835C21.5354 24.5837 21.5312 24.5857 21.5235 24.589M5.53275 8.00567C5.53337 8.00544 5.53368 8.00533 5.53371 8.00532M5.53275 8.00567C5.5329 8.00561 5.5326 8.00572 5.53275 8.00567ZM9.40034 4.33984C8.62986 4.75384 8.14487 5.02465 8.14506 5.04474C8.14537 5.07643 8.67723 5.36712 9.40282 5.74572C9.41084 5.73136 9.41886 5.71642 9.42682 5.7009L9.40034 4.33984ZM15.5558 12.0037C15.3975 11.8829 15.0378 11.669 14.4362 11.3395C14.3332 11.5002 14.2574 11.6894 14.2264 11.9025C14.1746 12.2595 14.2701 12.5386 14.3326 12.6794C14.3418 12.7002 14.3514 12.7203 14.3612 12.7397C14.99 12.4599 15.5626 12.1837 15.6455 12.1196C15.6658 12.1038 15.6377 12.0662 15.5558 12.0037ZM6.05508 27.6372C6.04903 27.6346 6.04806 27.634 6.05329 27.6364C6.05375 27.6366 6.05435 27.6369 6.05508 27.6372ZM18.7635 31.6467L19.0858 31.5081L20.9281 32.4399C19.5995 33.0881 17.8401 33.9506 16.9519 34.3891L15.9332 34.892L12.6221 33.2219C12.1136 32.9654 11.6665 32.738 11.2756 32.5368C11.8816 32.261 12.456 32.0011 12.8974 31.8025C13.0558 31.7312 13.1964 31.6682 13.3149 31.6153C13.4751 31.6836 13.7015 31.7891 14.0191 31.9473C14.1126 31.9938 14.2055 32.0406 14.2958 32.0861C14.5061 32.1921 14.7021 32.291 14.8583 32.3623C15.0889 32.4677 15.4211 32.6059 15.8196 32.6349C16.2507 32.6663 16.6026 32.5608 16.8563 32.4655C17.0073 32.4088 17.2006 32.3234 17.3845 32.2422C17.4555 32.2109 17.5251 32.1802 17.5903 32.152C17.9813 31.9833 18.3723 31.8149 18.7635 31.6467Z" stroke="white" stroke-width="2.88031"/>
</svg>
