<svg width="130" height="49" viewBox="0 0 130 49" fill="none" xmlns="http://www.w3.org/2000/svg">
<g clip-path="url(#clip0_6063_6)">
<path d="M38.5517 4.02173C37.956 4.02173 37.3756 4.25466 36.9479 4.68997C33.2974 8.34046 30.0975 9.03161 25.4657 9.03161C24.0604 9.03161 22.5178 8.95906 20.8796 8.89033C19.5966 8.83305 18.2678 8.77195 16.8282 8.73759C16.5762 8.72995 16.328 8.72995 16.0836 8.72995C4.3722 8.72995 0.622429 15.8133 0.469689 16.115C0.272362 16.5025 0.190204 16.9385 0.232941 17.3712L2.79898 42.9362C2.84088 43.3524 2.9967 43.749 3.24932 44.0825C3.50193 44.4159 3.84157 44.6733 4.23092 44.8263C4.49386 44.9289 4.77349 44.9819 5.05572 44.9829C5.60177 44.9829 6.14018 44.7843 6.56403 44.4063C6.60222 44.3719 11.3104 40.3472 18.8329 40.3472C19.7952 40.3472 20.7765 40.4159 21.7464 40.5458C25.2862 41.0154 27.8713 41.2255 30.1281 41.2255C37.3565 41.2255 42.7024 38.8962 48.0025 33.4395C48.2861 33.1484 48.486 32.7863 48.5814 32.3912C48.6768 31.9962 48.6642 31.5827 48.5447 31.1942L40.713 5.62932C40.5978 5.25482 40.3879 4.91639 40.1036 4.64679C39.8193 4.3772 39.4702 4.18557 39.0901 4.09046C38.9183 4.04464 38.735 4.02173 38.5517 4.02173Z" fill="#E74600"/>
<mask id="mask0_6063_6" style="mask-type:luminance" maskUnits="userSpaceOnUse" x="0" y="4" width="49" height="41">
<path d="M38.5517 4.02173C37.956 4.02173 37.3756 4.25466 36.9479 4.68997C33.2974 8.34046 30.0975 9.03161 25.4657 9.03161C24.0604 9.03161 22.5178 8.95906 20.8796 8.89033C19.5966 8.83305 18.2678 8.77195 16.8282 8.73759C16.5762 8.72995 16.328 8.72995 16.0836 8.72995C4.3722 8.72995 0.622429 15.8133 0.469689 16.115C0.272362 16.5025 0.190204 16.9385 0.232941 17.3712L2.79898 42.9362C2.84088 43.3524 2.9967 43.749 3.24932 44.0825C3.50193 44.4159 3.84157 44.6733 4.23092 44.8263C4.49386 44.9289 4.77349 44.9819 5.05572 44.9829C5.60177 44.9829 6.14018 44.7843 6.56403 44.4063C6.60222 44.3719 11.3104 40.3472 18.8329 40.3472C19.7952 40.3472 20.7765 40.4159 21.7464 40.5458C25.2862 41.0154 27.8713 41.2255 30.1281 41.2255C37.3565 41.2255 42.7024 38.8962 48.0025 33.4395C48.2861 33.1484 48.486 32.7863 48.5814 32.3912C48.6768 31.9962 48.6642 31.5827 48.5447 31.1942L40.713 5.62932C40.5978 5.25482 40.3879 4.91639 40.1036 4.64679C39.8193 4.3772 39.4702 4.18557 39.0901 4.09046C38.9183 4.04464 38.735 4.02173 38.5517 4.02173Z" fill="white"/>
</mask>
<g mask="url(#mask0_6063_6)">
<path d="M41.0488 4.37686C40.6211 4.04847 40.2622 4.3425 40.2622 4.3425C39.8345 4.86945 38.5515 6.29375 38.5515 6.29375C32.2204 12.6248 26.5537 11.2502 16.7707 11.0058C5.76576 10.727 2.4933 17.146 2.4933 17.146L3.77632 29.9303L0.767334 32.1222L2.14582 44.6545L2.99734 45.4411C3.06226 44.5858 6.52565 41.4049 9.17951 40.1792C12.1312 38.816 16.5454 37.5559 22.0441 38.289C32.4953 39.679 38.9944 39.4499 46.3756 31.851C46.3756 31.851 46.5895 31.6639 47.1775 31.0377C47.7694 30.4153 48.3231 30.4153 48.3231 30.4153L48.5865 30.3504L41.0488 4.37686Z" fill="white"/>
<path d="M3.42123 26.6122L1.56543 25.1497C1.80218 24.848 7.52231 17.7379 18.5845 18.2916L18.9396 18.3107C29.895 18.8453 34.439 19.0706 40.7663 12.8044C41.087 12.4379 42.9199 10.3529 43.8058 9.66943L45.2454 11.5405C44.6917 11.9644 43.2788 13.5109 42.5151 14.3853L42.4579 14.4502C35.3783 21.4801 29.8453 21.209 18.8213 20.6667L18.4662 20.6477C8.6144 20.1627 3.47087 26.5472 3.42123 26.6122Z" fill="#E74600"/>
<path d="M2.74542 22.4002L0.824707 21.0294C1.07291 20.6819 6.99924 12.5752 18.2791 13.5031C28.1614 14.3126 34.5383 14.3317 39.6857 7.76003C39.9721 7.37436 41.5606 5.27037 42.7252 4.64795L43.8364 6.73286C43.3744 6.97724 42.2975 8.19916 41.5682 9.19198C35.2409 17.2567 26.9089 16.5732 18.0882 15.8515C8.13715 15.0381 2.79888 22.3276 2.74542 22.4002ZM3.79551 30.8735L2.05809 29.2773C2.32538 28.9833 8.67556 22.1978 19.8294 22.7897C20.933 22.847 21.9869 22.9157 22.995 22.9806C31.1169 23.5076 36.0199 23.8245 42.1944 17.2834C43.4622 15.8705 45.1614 14.0835 45.9442 13.7284L46.9218 15.8782C46.559 16.092 45.0736 17.608 43.9319 18.8834C36.9745 26.2531 31.0482 25.8674 22.8422 25.3366C21.8418 25.2717 20.7993 25.203 19.7072 25.1495C9.71038 24.6111 3.85279 30.8124 3.79551 30.8735Z" fill="#E74600"/>
<path d="M17.8932 8.24515L22.063 27.7616C22.063 27.7616 9.33594 26.3831 1.46599 34.7189L-0.195065 16.1151C-0.198883 16.1113 2.91702 7.18361 17.8932 8.24515Z" fill="#00538B"/>
<path d="M1.76778 37.9911L-0.210205 36.7005C0.740604 35.2456 2.44366 33.6915 2.51621 33.6266C2.73768 33.3936 9.38189 26.7189 20.7725 27.6239L22.1052 27.7308C31.5483 28.5098 36.7492 28.9374 43.8516 21.8159C43.9241 21.7434 45.6768 19.9907 46.9789 19.0322L48.3803 20.9338C47.2195 21.793 45.5394 23.4655 45.5241 23.4846C37.6465 31.3851 31.3841 30.8658 21.9066 30.0906L20.5816 29.9799C10.3327 29.1475 4.21545 35.2647 4.15435 35.3296C4.08562 35.3907 2.54676 36.7959 1.76778 37.9911Z" fill="#E74600"/>
<path d="M2.13048 43.2608L0.244141 41.8441C1.72954 39.8661 4.96382 36.2309 9.96607 34.1002C13.1469 32.7446 16.9463 32.2368 21.2574 32.5842C22.5366 32.6912 23.728 32.8057 24.8583 32.9165C33.1292 33.726 37.2837 34.1384 45.5966 26.6961C45.5966 26.6961 46.9598 25.394 47.8877 24.2866L49.7015 25.7988C48.6858 27.0169 47.2576 28.3762 47.2004 28.4297C38.0779 36.586 33.0146 36.0935 24.6253 35.2687C23.5103 35.1579 22.3304 35.0395 21.0627 34.9403C17.1907 34.6233 13.6738 35.0854 10.8901 36.2729C6.39194 38.186 3.47078 41.4737 2.13048 43.2608Z" fill="#E74600"/>
</g>
<path d="M6.25828 12.7126C6.26974 12.6095 6.34229 12.5904 6.40721 12.6591L6.78524 13.0524C6.85397 13.1212 6.99526 13.167 7.09454 13.1517L7.6444 13.0524C7.74369 13.0333 7.78569 13.0906 7.73605 13.1823L7.47257 13.6596C7.41911 13.7436 7.41911 13.8963 7.46875 13.9841L7.74369 14.4806C7.79333 14.5684 7.75132 14.6257 7.65586 14.6066L7.10218 14.4958C7.00289 14.4729 6.86543 14.5187 6.79669 14.5989L6.41866 15.0151C6.34993 15.0877 6.28501 15.0686 6.26974 14.9655L6.19337 14.4042C6.18191 14.3011 6.09027 14.1827 6.00244 14.1445L5.50604 13.9154C5.41058 13.8772 5.41058 13.8009 5.50222 13.755L6.00244 13.5107C6.09409 13.4648 6.1781 13.3426 6.18955 13.2434L6.25828 12.7126ZM7.7475 19.605C7.77042 19.5019 7.83915 19.4904 7.90024 19.5668L8.24009 19.9945C8.30119 20.0747 8.43484 20.1281 8.53794 20.1205L9.09162 20.0785C9.1909 20.0709 9.22909 20.1319 9.16799 20.216L8.85869 20.6665C8.80141 20.7505 8.78614 20.8957 8.82814 20.9911L9.05343 21.5066C9.09162 21.5983 9.04962 21.6555 8.95034 21.6288L8.41193 21.4646C8.31646 21.4341 8.17136 21.4684 8.09881 21.5333L7.68259 21.9152C7.61004 21.9877 7.5413 21.9572 7.53749 21.8541L7.51457 21.289C7.51457 21.1897 7.4382 21.0598 7.34656 21.014L6.87306 20.7429C6.78524 20.6933 6.78906 20.6207 6.88452 20.5864L7.40766 20.3878C7.50312 20.3534 7.59858 20.2427 7.62149 20.1396L7.7475 19.605ZM8.67158 25.6726C8.68304 25.5733 8.75177 25.5504 8.82051 25.623L9.20236 26.0086C9.27491 26.0812 9.41619 26.1232 9.51547 26.1079L10.0615 26.001C10.1608 25.9819 10.2028 26.043 10.1532 26.1308L9.89351 26.612C9.84387 26.696 9.84768 26.8449 9.89733 26.9365L10.1761 27.4291C10.2295 27.5131 10.1875 27.5742 10.0883 27.5551L9.53457 27.4559C9.43529 27.4368 9.29782 27.4826 9.2329 27.559L8.86251 27.979C8.79759 28.0554 8.72886 28.0324 8.71359 27.9332L8.62958 27.3718C8.61812 27.2687 8.52648 27.1542 8.43484 27.116L7.93461 26.8983C7.84297 26.8563 7.83915 26.7838 7.93079 26.738L8.4272 26.4821C8.51884 26.4401 8.60285 26.3179 8.61431 26.2187L8.67158 25.6726ZM10.7679 10.7842C10.7909 10.685 10.8596 10.6697 10.9207 10.7499L11.2567 11.1775C11.3178 11.2577 11.4515 11.3188 11.5546 11.3112L12.1082 11.2654C12.2113 11.2577 12.2457 11.3188 12.1846 11.4028L11.8715 11.8534C11.8142 11.9336 11.7989 12.0825 11.8371 12.1742L12.0586 12.6897C12.1006 12.7851 12.0548 12.8386 11.9555 12.808L11.4171 12.6439C11.3216 12.6133 11.1803 12.6439 11.104 12.7126L10.6878 13.0868C10.6114 13.1555 10.5465 13.1288 10.5427 13.0257L10.5274 12.4567C10.5274 12.3575 10.451 12.2315 10.3632 12.1818L9.88969 11.9107C9.80186 11.8572 9.80568 11.7885 9.90114 11.7503L10.4243 11.5556C10.5197 11.5174 10.6152 11.4067 10.6381 11.3112L10.7679 10.7842ZM11.9402 17.8676C11.967 17.7721 12.0395 17.7568 12.0968 17.8408L12.4099 18.2876C12.4672 18.3716 12.6008 18.4365 12.7039 18.4327L13.2576 18.4213C13.3607 18.4174 13.3913 18.4824 13.3302 18.5625L12.9941 18.994C12.9292 19.0704 12.9063 19.2193 12.9445 19.311L13.1392 19.8417C13.1774 19.9372 13.1278 19.9907 13.0323 19.9525L12.5015 19.7616C12.4061 19.7234 12.2648 19.7501 12.1846 19.815L11.7493 20.1701C11.6691 20.235 11.608 20.2045 11.6118 20.1014L11.6233 19.5324C11.6271 19.4293 11.5584 19.2995 11.4744 19.2499L11.0161 18.952C10.9283 18.8948 10.9398 18.826 11.0352 18.7955L11.5698 18.6313C11.6653 18.5969 11.7684 18.4938 11.7951 18.3945L11.9402 17.8676ZM13.3645 24.3438C13.3913 24.2445 13.46 24.2292 13.5211 24.3132L13.8457 24.7447C13.9068 24.8249 14.0404 24.8898 14.1397 24.8822L14.6972 24.8478C14.8003 24.8402 14.8347 24.9051 14.7736 24.9891L14.4528 25.432C14.3917 25.5084 14.3726 25.6573 14.4108 25.7528L14.6246 26.2721C14.6628 26.3714 14.617 26.421 14.5215 26.3905L13.9869 26.2148C13.8915 26.1805 13.7502 26.211 13.6738 26.2798L13.25 26.6463C13.1736 26.7151 13.1087 26.6883 13.1087 26.5814L13.1011 26.0163C13.1011 25.9132 13.0285 25.7872 12.9407 25.7375L12.4748 25.455C12.387 25.4015 12.3946 25.3328 12.4901 25.2984L13.017 25.1151C13.1125 25.0807 13.2118 24.9738 13.2385 24.8745L13.3645 24.3438ZM14.0939 13.946C14.1321 13.8543 14.2008 13.8505 14.2542 13.9345L14.5254 14.4042C14.575 14.492 14.701 14.5722 14.8041 14.576L15.3578 14.6104C15.4609 14.618 15.4838 14.6868 15.4113 14.7593L15.0409 15.1602C14.9683 15.2328 14.9339 15.3741 14.9607 15.4734L15.1058 16.0194C15.1363 16.1149 15.079 16.1607 14.9874 16.1187L14.4795 15.8781C14.3917 15.8361 14.2428 15.8438 14.1626 15.901L13.6967 16.2142C13.6127 16.2714 13.5555 16.2333 13.5631 16.1302L13.6242 15.5688C13.6356 15.4695 13.5784 15.3321 13.4982 15.2748L13.0667 14.935C12.9865 14.8739 13.0018 14.8013 13.1011 14.7784L13.6471 14.66C13.7464 14.6409 13.8609 14.5455 13.8953 14.45L14.0939 13.946ZM15.3922 20.6398C15.4265 20.5482 15.4953 20.5367 15.5487 20.6245L15.8427 21.0751C15.8962 21.1629 16.0222 21.2317 16.1253 21.2317L16.6828 21.2431C16.7859 21.2431 16.8165 21.3119 16.7477 21.3882L16.3926 21.8083C16.3277 21.8808 16.301 22.0259 16.3315 22.1214L16.5033 22.6636C16.5339 22.7591 16.4843 22.8087 16.3926 22.7667L15.8695 22.5529C15.7778 22.5147 15.6327 22.5338 15.5525 22.5949L15.102 22.9309C15.0218 22.992 14.9607 22.9615 14.9683 22.8584L15.0027 22.2932C15.0103 22.1901 14.9454 22.0603 14.8614 22.003L14.4184 21.6861C14.3344 21.6288 14.3459 21.5563 14.4452 21.5295L14.9836 21.3844C15.0829 21.3615 15.1898 21.2546 15.2203 21.1553L15.3922 20.6398ZM9.37419 15.3206C9.40092 15.2252 9.47347 15.2137 9.53075 15.2939L9.84768 15.7368C9.90496 15.8209 10.0348 15.8858 10.1379 15.8819L10.6916 15.8629C10.7947 15.859 10.8252 15.924 10.7641 16.0041L10.4319 16.4356C10.3708 16.5158 10.3479 16.6609 10.3861 16.7564L10.5847 17.2833C10.6228 17.3788 10.5732 17.4323 10.4777 17.3979L9.94697 17.207C9.8515 17.1688 9.71022 17.1955 9.63003 17.2642L9.19472 17.6156C9.11453 17.6805 9.05343 17.6499 9.05343 17.5468L9.06107 16.9817C9.06107 16.8786 8.99234 16.7526 8.90833 16.6953L8.45011 16.4013C8.36228 16.3478 8.37374 16.2753 8.4692 16.2447L8.99998 16.0767C9.09544 16.0461 9.19854 15.9392 9.22527 15.8438L9.37419 15.3206ZM10.5007 21.9343C10.5197 21.8312 10.5885 21.8159 10.6534 21.8923L11.0123 22.2932C11.0811 22.3734 11.2185 22.4269 11.3178 22.4078L11.8677 22.3314C11.9708 22.32 12.009 22.3811 11.9517 22.4651L11.6691 22.9309C11.6157 23.0149 11.6118 23.16 11.6538 23.2555L11.9097 23.7595C11.9555 23.8512 11.9135 23.9085 11.8142 23.8817L11.2682 23.7519C11.1689 23.7252 11.0276 23.7634 10.9589 23.8359L10.5656 24.2368C10.493 24.3094 10.4281 24.2865 10.4166 24.1834L10.367 23.6182C10.3596 23.5629 10.3391 23.5102 10.3072 23.4644C10.2753 23.4185 10.233 23.381 10.1837 23.3548L9.69494 23.1104C9.6033 23.0684 9.60712 22.9958 9.69876 22.95L10.2104 22.7285C10.3059 22.6865 10.3937 22.5682 10.409 22.4651L10.5007 21.9343ZM15.48 10.3031C15.522 10.2115 15.5945 10.2115 15.6365 10.2993L15.8809 10.7842C15.9229 10.8759 16.0451 10.9637 16.1482 10.9713L16.7019 11.0439C16.8012 11.0554 16.8241 11.1279 16.7477 11.1928L16.3506 11.5709C16.2781 11.6358 16.2322 11.7771 16.2551 11.8801L16.3659 12.43C16.3888 12.5331 16.3315 12.5751 16.2399 12.5255L15.7473 12.2544C15.6595 12.2047 15.5144 12.2047 15.4303 12.2582L14.9454 12.5446C14.8576 12.5942 14.8003 12.556 14.8194 12.4567L14.911 11.8992C14.9301 11.7961 14.8805 11.6625 14.8041 11.5938L14.3955 11.231C14.3192 11.1585 14.3383 11.0897 14.4414 11.0783L14.995 10.9904C15.0981 10.9752 15.2127 10.8873 15.2547 10.7919L15.48 10.3031ZM16.7783 16.9435C16.8203 16.8518 16.889 16.848 16.9387 16.9359L17.1983 17.4132C17.2441 17.501 17.3663 17.585 17.4732 17.5926L18.0269 17.6423C18.13 17.6499 18.1529 17.7187 18.0804 17.7874L17.6985 18.1807C17.626 18.2494 17.5878 18.3945 17.6107 18.49L17.7444 19.0399C17.7673 19.1391 17.7138 19.185 17.6222 19.1391L17.1181 18.8871C17.0303 18.8413 16.8814 18.8451 16.8012 18.9024L16.3277 19.2041C16.2437 19.2613 16.1826 19.2231 16.194 19.1239L16.2704 18.5625C16.2857 18.4633 16.2322 18.3258 16.152 18.2609L15.732 17.9134C15.6518 17.8485 15.6709 17.7759 15.7702 17.7607L16.3162 17.6576C16.4155 17.6385 16.5301 17.543 16.5683 17.4514L16.7783 16.9435ZM18.0613 23.771C18.0957 23.6755 18.1644 23.6679 18.2179 23.7557L18.5081 24.2139C18.5615 24.3018 18.6914 24.3743 18.7945 24.3743L19.352 24.3858C19.4551 24.3896 19.4818 24.4583 19.4131 24.5347L19.0579 24.9471C18.993 25.0235 18.9625 25.1686 18.993 25.264L19.161 25.8063C19.1916 25.9017 19.1419 25.9514 19.0465 25.9094L18.5272 25.6917C18.4355 25.6497 18.2904 25.6688 18.2102 25.7299L17.7558 26.0621C17.6756 26.1194 17.6145 26.085 17.6222 25.9857L17.6604 25.4206C17.6616 25.3643 17.6498 25.3085 17.6259 25.2575C17.6021 25.2065 17.5668 25.1617 17.5229 25.1266L17.0799 24.8058C16.9959 24.7485 17.0074 24.676 17.1067 24.6531L17.6451 24.5118C17.7444 24.4889 17.8513 24.3858 17.8856 24.2865L18.0613 23.771ZM2.3214 15.5383C2.30995 15.4352 2.37104 15.4008 2.45505 15.4543L2.90945 15.7483C2.99728 15.8056 3.14238 15.8209 3.23402 15.775L3.74571 15.5497C3.83735 15.5077 3.89463 15.5574 3.86408 15.6528L3.71516 16.1798C3.68461 16.2791 3.72279 16.4204 3.78771 16.4967L4.16574 16.9168C4.23447 16.9893 4.21156 17.058 4.10846 17.058L3.54714 17.081C3.44404 17.081 3.31803 17.1611 3.27221 17.249L3.0011 17.7377C2.95527 17.8294 2.88272 17.8256 2.84454 17.7301L2.64597 17.2032C2.61161 17.1077 2.49705 17.0122 2.39777 16.9931L1.85936 16.8862C1.76008 16.8671 1.74099 16.7984 1.81736 16.7335L2.24885 16.3784C2.29062 16.3405 2.3233 16.2937 2.34446 16.2415C2.36562 16.1893 2.3747 16.1329 2.37104 16.0767L2.3214 15.5383ZM3.77625 28.2272C3.76098 28.1279 3.81826 28.0897 3.90608 28.1394L4.37576 28.4143C4.46359 28.4678 4.60869 28.4716 4.70033 28.4258L5.19674 28.1814C5.28838 28.1394 5.34566 28.1852 5.31893 28.2845L5.19292 28.8152C5.17001 28.9107 5.20819 29.052 5.28075 29.1245L5.68169 29.5255C5.75424 29.598 5.73133 29.6668 5.62823 29.6744L5.06691 29.7202C4.96381 29.724 4.84544 29.8081 4.79961 29.8997L4.55141 30.3999C4.50559 30.4954 4.43686 30.4877 4.39485 30.3961L4.16956 29.8768C4.13137 29.7851 4.013 29.6973 3.91372 29.6782L3.37531 29.598C3.27603 29.5828 3.25312 29.514 3.32949 29.4453L3.74189 29.0749C3.81826 29.0062 3.8679 28.8687 3.85262 28.7656L3.77625 28.2272ZM2.87127 21.4417C2.85981 21.3386 2.92091 21.3042 3.00491 21.3577L3.46314 21.6479C3.55096 21.7014 3.69606 21.7128 3.78771 21.6708L4.29557 21.4379C4.38721 21.3959 4.44449 21.4455 4.41394 21.541L4.27266 22.0679C4.24211 22.1634 4.2803 22.3085 4.34903 22.3849L4.7347 22.7973C4.80725 22.8698 4.78052 22.9386 4.68124 22.9386L4.11992 22.9691C4.01682 22.9729 3.89463 23.0493 3.8488 23.1371L3.58533 23.6335C3.53951 23.7213 3.46695 23.7175 3.42877 23.6259L3.22257 23.0989C3.18438 23.0035 3.06983 22.9118 2.97055 22.8966L2.43214 22.7973C2.32904 22.7782 2.31376 22.7094 2.39013 22.6445L2.81781 22.2856C2.89418 22.2207 2.95146 22.0832 2.93618 21.9801L2.87127 21.4417ZM5.08218 17.5354C5.09364 17.4323 5.16237 17.4094 5.23111 17.4819L5.60914 17.8714C5.68169 17.9439 5.81916 17.9898 5.91844 17.9745L6.46448 17.8714C6.56758 17.8523 6.60959 17.9096 6.55613 18.0012L6.29647 18.4785C6.24683 18.5664 6.24683 18.7153 6.29647 18.8031L6.5714 19.2995C6.62486 19.3873 6.58286 19.4446 6.48358 19.4293L5.92989 19.3224C5.83061 19.2995 5.69315 19.3492 5.62823 19.4255L5.25402 19.8417C5.18528 19.9181 5.12037 19.8952 5.10509 19.7959L5.02491 19.2346C5.01345 19.1391 4.92181 19.0208 4.83016 18.9788L4.33376 18.7573C4.23829 18.7153 4.23829 18.6427 4.32994 18.5969L4.82634 18.3525C4.91799 18.3029 5.002 18.1845 5.01345 18.0814L5.08218 17.5354ZM5.60532 24.1147C5.61678 24.0154 5.68551 23.9925 5.75424 24.065L6.13227 24.4507C6.20483 24.5232 6.34229 24.5691 6.44157 24.55L6.99144 24.4469C7.09072 24.424 7.13654 24.4851 7.08308 24.5729L6.82342 25.054C6.77378 25.1418 6.77378 25.2908 6.82342 25.3786L7.10218 25.875C7.15182 25.9628 7.11363 26.0239 7.01435 26.001L6.46067 25.8979C6.36138 25.875 6.22392 25.9246 6.15519 26.001L5.78097 26.4096C5.71606 26.486 5.64732 26.463 5.63205 26.3676L5.55186 25.8063C5.5404 25.7032 5.44876 25.5886 5.35712 25.5466L4.85689 25.3289C4.76143 25.2869 4.76143 25.2144 4.85307 25.1686L5.34948 24.9165C5.44112 24.8745 5.52513 24.7523 5.53659 24.6492L5.60532 24.1147Z" fill="white"/>
</g>
<path d="M60.8895 45.5792C60.4326 45.5792 60.2042 45.1626 60.2042 44.3295V44.007C60.1773 43.7652 60.1639 43.3218 60.1639 42.6768L60.1236 41.3465L59.398 41.3868C58.4305 41.3868 57.5974 41.2122 56.8987 40.8628C56.4687 40.6209 56.2537 40.3388 56.2537 40.0163C56.2537 39.6938 56.3209 39.4385 56.4553 39.2504C56.6165 39.0354 56.8449 38.9279 57.1406 38.9279C57.4362 38.9279 57.8393 39.0354 58.3499 39.2504C58.8605 39.4654 59.2099 39.5728 59.398 39.5728C59.5592 39.5728 59.7742 39.546 60.0429 39.4922L59.6801 27.7618L59.5995 25.2625C57.9065 22.9513 56.7375 21.1911 56.0925 19.9818C55.4744 18.7456 55.1653 17.4153 55.1653 15.991C55.1653 14.8623 55.5147 13.7739 56.2134 12.7258C56.939 11.6509 57.9199 10.8312 59.1561 10.2668L59.1158 8.85597C59.1158 8.13037 59.2905 7.76757 59.6398 7.76757C59.8817 7.76757 60.0833 7.91538 60.2445 8.21099C60.4326 8.5066 60.5267 8.8694 60.5267 9.29938V9.82343C61.4404 9.60843 62.26 9.50094 62.9856 9.50094C63.4694 9.50094 63.9397 9.64874 64.3965 9.94436C64.8534 10.2131 65.1759 10.5625 65.364 10.9924L64.6787 11.839C64.3025 11.839 63.8322 11.7852 63.2678 11.6777C62.5691 11.5971 62.0585 11.5568 61.736 11.5568C61.3598 11.5568 60.9835 11.5971 60.6073 11.6777L61.1716 24.3353C61.8166 25.1684 62.3272 25.8806 62.7035 26.4718C63.1066 27.0362 63.5366 27.7215 63.9934 28.5277C64.8534 30.167 65.2834 31.9138 65.2834 33.7681C65.2834 35.2193 65.0012 36.5898 64.4368 37.8798C63.8725 39.1697 63.0797 40.1103 62.0585 40.7016V43.7652C62.0585 44.9745 61.6688 45.5792 60.8895 45.5792ZM59.4786 20.5864C59.398 18.7859 59.3173 16.0179 59.2367 12.2824C58.5649 12.7124 58.0408 13.2499 57.6646 13.8948C57.2884 14.5398 57.1002 15.1579 57.1002 15.7491C57.1002 16.7972 57.3018 17.8184 57.7049 18.8127C58.108 19.8071 58.7127 20.882 59.5189 22.0376L59.4786 20.5864ZM61.8166 38.2829C62.3004 37.6917 62.69 36.9526 62.9856 36.0658C63.2812 35.179 63.4291 34.3996 63.4291 33.7278C63.4291 31.9003 62.7303 29.9117 61.3329 27.7618L61.8166 38.2829ZM72.3412 40.7016C72.0456 40.7016 71.8037 40.5806 71.6156 40.3388C71.4544 40.07 71.3738 39.7475 71.3738 39.3713L71.4544 32.5991C71.535 29.3205 71.5753 26.7809 71.5753 24.9803C71.5753 18.7187 71.226 13.9217 70.5272 10.5893C70.9303 9.97123 71.4409 9.66218 72.059 9.66218C73.0534 9.66218 73.9537 9.89061 74.7599 10.3475C75.593 10.7774 76.2783 11.3687 76.8157 12.1211C77.8638 13.6798 78.3879 15.4266 78.3879 17.3616C78.3879 19.3771 77.9579 21.1777 77.0979 22.7632C76.2379 24.3488 74.9883 25.585 73.349 26.4718L73.4296 30.5432L73.5102 32.6797C73.5371 33.1365 73.5505 33.795 73.5505 34.6549C73.6312 36.4555 73.6715 37.9201 73.6715 39.0488C73.6715 39.5594 73.564 39.9625 73.349 40.2581C73.134 40.5537 72.7981 40.7016 72.3412 40.7016ZM73.2684 24.5369C74.3165 23.5426 75.0824 22.5079 75.5661 21.433C76.0767 20.3311 76.332 19.0949 76.332 17.7244V17.684C76.332 17.0659 76.2648 16.2866 76.1304 15.346C76.0498 15.0235 75.902 14.701 75.687 14.3786C75.472 14.0561 75.3511 13.8679 75.3242 13.8142C75.1361 13.5455 74.6389 13.1289 73.8327 12.5646L72.7846 11.7987C72.7846 13.1692 72.8653 15.2923 73.0265 18.1678L73.2684 24.5369ZM87.3403 41.2659C86.6416 41.2659 85.9966 41.0375 85.4054 40.5806C84.8142 40.1506 84.3305 39.5594 83.9542 38.8069C83.1749 37.1676 82.6911 35.3805 82.503 33.4456C82.2612 31.6182 82.1402 29.8579 82.1402 28.1649C82.1402 27.8424 82.1537 27.5736 82.1805 27.3587V26.6331C82.1805 26.4987 82.1671 26.4315 82.1402 26.4315V25.7059L82.1805 22.8841C82.2074 22.0242 82.3149 20.6536 82.503 18.7724C82.6374 17.4825 82.9464 16.2329 83.4302 15.0235C83.6183 14.4861 83.8602 14.0829 84.1558 13.8142C84.4514 13.5186 84.7873 13.3708 85.1635 13.3708C86.2385 13.3708 87.206 13.5723 88.0659 13.9754C88.9259 14.3517 89.6515 14.8892 90.2427 15.5879C90.7802 16.2597 91.237 17.0928 91.6133 18.0872C91.9895 19.0546 92.2583 20.0893 92.4195 21.1911C92.5807 22.3198 92.6614 23.5157 92.6614 24.7788V25.1012C92.6614 25.9343 92.6748 26.6868 92.7017 27.3587L92.742 29.6564C92.742 37.3961 90.9414 41.2659 87.3403 41.2659ZM87.1791 39.5728C87.6628 39.5728 88.1062 39.3847 88.5093 39.0085C88.9125 38.6054 89.2215 38.0679 89.4365 37.3961C89.9471 36.0255 90.2562 34.5474 90.3636 32.9619C90.498 31.5913 90.5652 30.4088 90.5652 29.4145C90.5652 28.2052 90.4711 26.6196 90.283 24.6578C90.1218 22.5885 90.0412 21.0433 90.0412 20.0221V19.2965C89.9874 18.2753 89.6381 17.3884 88.9931 16.636C88.375 15.8835 87.6091 15.5073 86.6954 15.5073C85.7816 15.5073 85.177 16.0313 84.8814 17.0794C84.6126 17.9125 84.4783 18.9874 84.4783 20.3043C84.4783 20.8149 84.4917 21.2448 84.5186 21.5942V22.6826L84.4379 24.5369C84.3842 25.1012 84.3573 25.7193 84.3573 26.3912C84.3573 27.8424 84.3976 29.2801 84.4783 30.7045C84.5858 32.72 84.8545 34.6818 85.2845 36.5898C85.7145 38.5785 86.346 39.5728 87.1791 39.5728ZM99.4075 39.855L99.3671 38.2829C99.3403 37.826 99.3268 37.3154 99.3268 36.7511L99.3671 35.3805C99.2865 35.0849 99.085 32.1422 98.7625 26.5524C98.44 20.9627 98.2519 17.375 98.1981 15.7894C96.6394 15.7357 95.6451 15.5744 95.2151 15.3057C94.9195 15.0907 94.7717 14.8488 94.7717 14.5801C94.7717 14.3651 94.9061 14.177 95.1748 14.0158C95.4704 13.8276 95.766 13.7336 96.0617 13.7336C96.8141 13.7336 97.7278 13.7873 98.8028 13.8948C99.824 14.0292 100.738 14.0964 101.544 14.0964H101.866H102.189C103.022 14.0964 103.439 14.4189 103.439 15.0638C103.439 15.3863 103.304 15.6551 103.035 15.8701C102.767 16.0582 102.458 16.1522 102.108 16.1522C101.866 16.1522 101.517 16.1119 101.06 16.0313L100.254 15.8701L100.214 16.0716L100.173 16.2732C100.173 18.6649 100.402 22.481 100.859 27.7215C101.289 32.6394 101.504 36.4555 101.504 39.1697C101.504 39.4922 101.356 39.7744 101.06 40.0163C100.791 40.2581 100.482 40.3791 100.133 40.3791L99.4075 39.855ZM111.777 41.1047C111.132 41.1047 110.554 40.9569 110.044 40.6612C109.533 40.3925 109.117 39.9894 108.794 39.4519C108.149 38.3232 107.733 37.0467 107.545 35.6224C107.356 34.3862 107.262 32.9081 107.262 31.1882C107.182 28.2858 107.141 24.7384 107.141 20.5461L107.101 17.4422C107.074 17.2809 107.061 17.0122 107.061 16.636C107.007 15.6148 106.98 14.9967 106.98 14.7817C107.222 14.2173 107.504 13.9351 107.827 13.9351C108.149 13.9351 108.431 14.177 108.673 14.6607C108.942 15.1445 109.076 15.6685 109.076 16.2329V27.1974C109.076 28.2724 109.17 29.6967 109.359 31.4704C109.547 33.674 109.641 35.0983 109.641 35.7433C109.641 37.732 110.487 38.7263 112.18 38.7263C114.115 38.7263 115.083 31.4972 115.083 17.0391V14.7817V14.4189C115.056 14.3382 115.042 14.2307 115.042 14.0964C115.042 13.7739 115.11 13.5455 115.244 13.4111C115.405 13.2498 115.701 13.1692 116.131 13.1692C116.48 13.1692 116.749 13.2767 116.937 13.4917C117.152 13.6798 117.286 13.9083 117.34 14.177C117.367 14.3382 117.38 14.6473 117.38 15.1041C117.38 15.5341 117.34 16.2194 117.26 17.16C117.152 17.9393 117.098 18.6112 117.098 19.1755C117.098 19.7936 117.071 20.3446 117.018 20.8283L116.937 22.5214V22.8438C116.964 22.9513 116.977 23.0723 116.977 23.2066C116.977 35.1387 115.244 41.1047 111.777 41.1047ZM122.755 41.0644C122.271 40.9837 121.855 40.8091 121.505 40.5403C121.183 40.2716 120.995 39.9222 120.941 39.4922L121.384 38.8069C121.546 38.8069 121.801 38.8607 122.15 38.9682C122.553 39.0488 122.863 39.0891 123.077 39.0891C123.561 39.0891 123.991 38.8741 124.367 38.4441C124.771 38.0142 125.066 37.4498 125.254 36.7511C125.604 35.4611 125.778 34.3056 125.778 33.2844C125.778 31.5107 125.214 29.6429 124.085 27.6811L123.642 26.9152C123.131 26.0284 122.701 25.2356 122.352 24.5369C122.003 23.8382 121.707 23.0857 121.465 22.2795C121.143 21.2314 120.981 20.1833 120.981 19.1352C120.981 17.9528 121.25 16.7166 121.788 15.4266C122.056 14.8085 122.433 14.3114 122.916 13.9351C123.427 13.532 123.991 13.3305 124.609 13.3305C125.093 13.3305 125.536 13.4917 125.94 13.8142C126.37 14.1098 126.585 14.4726 126.585 14.9026C126.585 15.1445 126.49 15.3326 126.302 15.4669C126.114 15.6013 125.886 15.6685 125.617 15.6685C125.321 15.6685 125.039 15.5879 124.771 15.4266C124.179 15.4535 123.709 15.9776 123.36 16.9988C123.064 17.9393 122.916 18.7187 122.916 19.3368C122.916 20.1161 123.037 20.9089 123.279 21.7151C123.521 22.4945 123.83 23.2066 124.206 23.8516L125.093 25.464L126.504 28.1246C126.88 28.877 127.176 29.7504 127.391 30.7448C127.633 31.7391 127.754 32.7469 127.754 33.7681C127.754 35.4074 127.377 36.9661 126.625 38.4441C126.249 39.1966 125.711 39.8013 125.012 40.2581C124.341 40.715 123.588 40.9434 122.755 40.9434V41.0644Z" fill="black"/>
<defs>
<clipPath id="clip0_6063_6">
<rect width="48.8769" height="48.8769" fill="white" transform="translate(0 0.0615234)"/>
</clipPath>
</defs>
</svg>
