<svg width="46" height="48" viewBox="0 0 46 48" fill="none" xmlns="http://www.w3.org/2000/svg">
<path d="M33.1349 6.32104H38.5383L26.7334 21.2475L40.6209 41.5591H29.7471L21.2304 29.2402L11.4853 41.5591H6.07862L18.7051 25.5936L5.38281 6.32104H16.5326L24.231 17.581L33.1349 6.32104ZM31.2385 37.9811H34.2325L14.9058 9.71111H11.6928L31.2385 37.9811Z" fill="white"/>
<mask id="mask0_6063_251" style="mask-type:luminance" maskUnits="userSpaceOnUse" x="5" y="6" width="36" height="36">
<path d="M33.1349 6.32104H38.5383L26.7334 21.2475L40.6209 41.5591H29.7471L21.2304 29.2402L11.4853 41.5591H6.07862L18.7051 25.5936L5.38281 6.32104H16.5326L24.231 17.581L33.1349 6.32104ZM31.2385 37.9811H34.2325L14.9058 9.71111H11.6928L31.2385 37.9811Z" fill="white"/>
</mask>
<g mask="url(#mask0_6063_251)">
<path d="M33.135 6.32104V1.32104H30.7144L29.213 3.21972L33.135 6.32104ZM38.5384 6.32104L42.4601 9.42263L48.8674 1.32104H38.5384V6.32104ZM26.7335 21.2475L22.8118 18.1459L20.5292 21.0321L22.6061 24.0696L26.7335 21.2475ZM40.621 41.5591V46.5591H50.0966L44.7485 38.7371L40.621 41.5591ZM29.7472 41.5591L25.6344 44.4025L27.1254 46.5591H29.7472V41.5591ZM21.2305 29.2402L25.3433 26.3968L21.5009 20.8391L17.3091 26.1382L21.2305 29.2402ZM11.4854 41.5591V46.5591H13.9054L15.4068 44.6612L11.4854 41.5591ZM6.07872 41.5591L2.15695 38.4576L-4.25024 46.5591H6.07872V41.5591ZM18.7052 25.5936L22.627 28.6951L24.9218 25.7935L22.8182 22.7504L18.7052 25.5936ZM5.38291 6.32104V1.32104H-4.15171L1.26994 9.16418L5.38291 6.32104ZM16.5327 6.32104L20.6602 3.49907L19.1711 1.32104H16.5327V6.32104ZM24.2311 17.581L20.1035 20.403L23.9385 26.0121L28.153 20.6823L24.2311 17.581ZM31.2386 37.9811L27.1259 40.8246L28.6168 42.9811H31.2386V37.9811ZM34.2326 37.9811V42.9811H43.7076L38.3602 35.1592L34.2326 37.9811ZM14.9059 9.71111L19.0335 6.88927L17.5444 4.71111H14.9059V9.71111ZM11.6929 9.71111V4.71111H2.15718L7.58014 12.5546L11.6929 9.71111ZM33.135 11.321H38.5384V1.32104H33.135V11.321ZM34.6166 3.21946L22.8118 18.1459L30.6553 24.3491L42.4601 9.42263L34.6166 3.21946ZM22.6061 24.0696L36.4935 44.3812L44.7485 38.7371L30.861 18.4255L22.6061 24.0696ZM40.621 36.5591H29.7472V46.5591H40.621V36.5591ZM33.86 38.7157L25.3433 26.3968L17.1177 32.0836L25.6344 44.4025L33.86 38.7157ZM17.3091 26.1382L7.56406 38.4571L15.4068 44.6612L25.1519 32.3423L17.3091 26.1382ZM11.4854 36.5591H6.07872V46.5591H11.4854V36.5591ZM10.0005 44.6607L22.627 28.6951L14.7835 22.492L2.15695 38.4576L10.0005 44.6607ZM22.8182 22.7504L9.49589 3.47791L1.26994 9.16418L14.5923 28.4367L22.8182 22.7504ZM5.38291 11.321H16.5327V1.32104H5.38291V11.321ZM12.4051 9.14302L20.1035 20.403L28.3586 14.759L20.6602 3.49907L12.4051 9.14302ZM28.153 20.6823L37.0569 9.42237L29.213 3.21972L20.3091 14.4797L28.153 20.6823ZM31.2386 42.9811H34.2326V32.9811H31.2386V42.9811ZM38.3602 35.1592L19.0335 6.88927L10.7783 12.5329L30.105 40.8029L38.3602 35.1592ZM14.9059 4.71111H11.6929V14.7111H14.9059V4.71111ZM7.58014 12.5546L27.1259 40.8246L35.3513 35.1376L15.8056 6.8676L7.58014 12.5546Z" fill="white"/>
</g>
</svg>
