<svg width="42" height="36" viewBox="0 0 42 36" fill="none" xmlns="http://www.w3.org/2000/svg">
<path d="M29.7002 12.745C29.1527 13.2881 28.5506 13.8804 27.9177 14.5029C26.23 16.1631 24.3234 18.0385 22.6499 19.7712C21.4998 20.962 20.4681 22.0768 19.699 23.0005C19.3141 23.4626 19.0009 23.8699 18.773 24.2101C18.5366 24.563 18.4217 24.8008 18.3889 24.9332C18.3064 25.269 18.4001 25.7007 18.7113 26.232C19.0183 26.756 19.4973 27.3078 20.0558 27.8449C21.1706 28.9168 22.5222 29.8548 23.1979 30.3077C25.9022 32.1183 28.9135 33.8566 30.9455 34.9872C33.0528 36.1595 35.6074 34.8256 35.997 32.4203L29.7002 12.745ZM29.7002 12.745C30.118 12.3301 30.4133 11.9312 30.5721 11.5731C30.7125 11.2566 30.8232 10.7785 30.5053 10.4222C30.1882 10.0667 29.6994 10.1192 29.3606 10.2231C28.9783 10.3403 28.5315 10.5911 28.0417 10.97M29.7002 12.745L28.0417 10.97L29.7002 12.745ZM28.0417 10.97C23.4352 14.5322 16.0587 19.934 13.6376 21.4438C12.5768 22.105 11.8038 22.47 11.1526 22.6482C10.5155 22.8226 9.97324 22.8242 9.36047 22.7196C6.93892 22.3069 4.70237 21.6689 2.88738 20.8977C0.807958 20.0145 0.881989 17.0549 2.88784 16.1896C2.88783 16.1896 2.88786 16.1896 2.88784 16.1896L37.1007 1.43473C37.5115 1.25764 37.9605 1.19678 38.4012 1.25795C38.842 1.31912 39.2599 1.50032 39.6112 1.78401C39.9625 2.06779 40.2345 2.44395 40.3974 2.87423C40.5604 3.30452 40.6079 3.77221 40.5347 4.22827C40.5347 4.22821 40.5347 4.22832 40.5347 4.22827L35.997 32.4203L28.0417 10.97Z" fill="white"/>
<path d="M29.7002 12.745C29.1527 13.2881 28.5506 13.8804 27.9177 14.5029C26.23 16.1631 24.3234 18.0385 22.6499 19.7712C21.4998 20.962 20.4681 22.0768 19.699 23.0005C19.3141 23.4626 19.0009 23.8699 18.773 24.2101C18.5366 24.563 18.4217 24.8008 18.3889 24.9332C18.3064 25.269 18.4001 25.7007 18.7113 26.232C19.0183 26.756 19.4973 27.3078 20.0558 27.8449C21.1706 28.9168 22.5222 29.8548 23.1979 30.3077C25.9022 32.1183 28.9135 33.8566 30.9455 34.9872C33.0528 36.1595 35.6074 34.8256 35.997 32.4203M29.7002 12.745L35.997 32.4203M29.7002 12.745C30.118 12.3301 30.4133 11.9312 30.5721 11.5731C30.7125 11.2566 30.8232 10.7785 30.5053 10.4222C30.1882 10.0667 29.6994 10.1192 29.3606 10.2231C28.9783 10.3403 28.5315 10.5911 28.0417 10.97M29.7002 12.745L28.0417 10.97M35.997 32.4203L40.5347 4.22827M35.997 32.4203L28.0417 10.97M28.0417 10.97C23.4352 14.5322 16.0587 19.934 13.6376 21.4438C12.5768 22.105 11.8038 22.47 11.1526 22.6482C10.5155 22.8226 9.97325 22.8242 9.36047 22.7196C6.93893 22.3069 4.70237 21.6689 2.88738 20.8977C0.807958 20.0145 0.881989 17.0549 2.88784 16.1896M2.88784 16.1896C2.88786 16.1896 2.88783 16.1896 2.88784 16.1896ZM2.88784 16.1896L37.1007 1.43473C37.5115 1.25764 37.9605 1.19678 38.4012 1.25795C38.842 1.31912 39.2599 1.50032 39.6112 1.78401C39.9625 2.06779 40.2345 2.44395 40.3974 2.87423C40.5604 3.30452 40.6079 3.77221 40.5347 4.22827M40.5347 4.22827C40.5347 4.22832 40.5347 4.22821 40.5347 4.22827Z" stroke="white"/>
</svg>
