<svg width="40" height="32" viewBox="0 0 40 32" fill="none" xmlns="http://www.w3.org/2000/svg">
<path d="M4.734 32C9.838 32 13.674 27.736 15.962 24.366C15.689 25.0701 15.5427 25.8169 15.53 26.572C15.53 28.54 16.706 29.942 19.026 29.942C22.212 29.942 25.614 27.258 27.378 24.366C27.2591 24.742 27.1964 25.1336 27.192 25.528C27.192 26.9 27.996 27.766 29.636 27.766C34.802 27.766 40 18.966 40 11.274C40 5.278 36.844 0 28.924 0C15.004 0 0 16.344 0 26.9C0 31.046 2.32 32 4.734 32ZM24.13 10.616C24.13 9.126 24.996 8.082 26.264 8.082C27.502 8.082 28.368 9.126 28.368 10.616C28.368 12.108 27.502 13.182 26.264 13.182C24.996 13.182 24.13 12.108 24.13 10.616ZM30.75 10.616C30.75 9.126 31.616 8.082 32.884 8.082C34.124 8.082 34.988 9.126 34.988 10.616C34.988 12.108 34.122 13.182 32.884 13.182C31.616 13.182 30.75 12.108 30.75 10.616Z" fill="white"/>
</svg>
